# Blender v2.76 (sub 0) OBJ File: 'reketfull.blend'
# www.blender.org
mtllib reketfull22.mtl
o BezierCircle_Mesh
v -1.094034 0.123197 0.195469
v -1.094034 0.219297 0.195469
v -1.094034 0.123197 -0.156746
v -1.094034 0.219297 -0.156746
v -0.741820 0.123197 0.195469
v -0.741820 0.219297 0.195469
v -0.741820 0.123197 -0.156746
v -0.741820 0.219297 -0.156746
v -1.707527 0.123197 0.195469
v -1.707527 0.219297 0.195469
v -1.707527 0.123197 -0.156746
v -1.707527 0.219297 -0.156746
v -1.707527 0.123197 0.195469
v -1.707527 0.219297 0.195469
v -1.707527 0.123197 -0.156746
v -1.707527 0.219297 -0.156746
v -1.894889 0.123197 0.195469
v -1.894889 0.219297 0.195469
v -1.894889 0.123197 -0.156746
v -1.894889 0.219297 -0.156746
v -0.572513 0.134457 0.713269
v -0.572514 0.212790 0.713268
v -0.395737 0.134457 0.862157
v -0.395738 0.212790 0.862156
v -0.484235 0.134457 0.787620
v -0.489955 0.212790 0.782802
v -0.708238 0.134457 0.525367
v -0.708237 0.212790 0.525368
v -0.775659 0.134457 0.361522
v -0.775660 0.212790 0.361518
v -0.808398 0.134457 0.246091
v -0.808398 0.212790 0.246091
v -0.838694 0.134457 0.063478
v -0.838694 0.212790 0.063478
v -0.804680 0.134457 0.259201
v -0.796619 0.212790 0.287622
v -0.725578 0.134457 0.078333
v -0.648270 0.134457 0.608389
v -0.641158 0.212790 0.618235
v -0.568913 0.134457 0.391664
v -0.412247 0.134457 0.548330
v -0.412247 0.134457 0.391664
v -0.568913 0.134457 0.234998
v -0.568913 0.134457 0.078333
v -0.412247 0.134457 0.234998
v -0.412247 0.134457 0.078333
v -0.197151 0.134457 0.951382
v -0.204424 0.212790 0.948978
v -0.122379 0.134457 0.976101
v -0.122380 0.212790 0.976101
v -0.236994 0.134457 0.938210
v -0.236988 0.212790 0.938213
v -0.255581 0.134457 0.704995
v -0.098916 0.134457 0.861661
v -0.098916 0.134457 0.704995
v 0.000001 0.134457 1.000001
v 0.000001 0.212790 1.000001
v 0.169225 0.134457 1.011865
v 0.169225 0.212790 1.011865
v 0.057750 0.134457 0.861661
v 0.057750 0.134457 0.704995
v 0.214416 0.134457 0.861661
v 0.214416 0.134457 0.704995
v -0.255581 0.134457 0.548330
v -0.255581 0.134457 0.391664
v -0.098916 0.134457 0.548330
v -0.098916 0.134457 0.391664
v -0.255581 0.134457 0.234998
v -0.255581 0.134457 0.078333
v -0.098916 0.134457 0.234998
v -0.098916 0.134457 0.078333
v 0.057750 0.134457 0.548330
v 0.057750 0.134457 0.391664
v 0.214416 0.134457 0.548330
v 0.214416 0.134457 0.391664
v 0.057750 0.134457 0.234998
v 0.057750 0.134457 0.078333
v 0.214416 0.134457 0.234998
v 0.214416 0.134457 0.078333
v -0.828443 0.134457 -0.125266
v -0.828443 0.212790 -0.125266
v -0.808398 0.134457 -0.246091
v -0.808398 0.212790 -0.246092
v -0.725578 0.134457 -0.078333
v -0.804680 0.134457 -0.259200
v -0.796619 0.212790 -0.287621
v -0.775660 0.134457 -0.361515
v -0.775661 0.212790 -0.361513
v -0.708234 0.134457 -0.525370
v -0.708234 0.212790 -0.525370
v -0.568913 0.134457 -0.078333
v -0.568913 0.134457 -0.234998
v -0.412247 0.134457 -0.078333
v -0.412247 0.134457 -0.234998
v -0.568913 0.134457 -0.391664
v -0.648269 0.134457 -0.608388
v -0.641157 0.212790 -0.618234
v -0.412247 0.134457 -0.391664
v -0.412247 0.134457 -0.548330
v -0.572510 0.134457 -0.713271
v -0.572511 0.212790 -0.713269
v -0.484234 0.134457 -0.787619
v -0.489954 0.212790 -0.782801
v -0.395734 0.134457 -0.862156
v -0.395734 0.212790 -0.862156
v -0.255581 0.134457 -0.078333
v -0.255581 0.134457 -0.234998
v -0.098916 0.134457 -0.078333
v -0.098916 0.134457 -0.234998
v -0.255581 0.134457 -0.391664
v -0.255581 0.134457 -0.548330
v -0.098916 0.134457 -0.391664
v -0.098916 0.134457 -0.548330
v 0.057750 0.134457 -0.078333
v 0.057750 0.134457 -0.234998
v 0.214416 0.134457 -0.078333
v 0.214416 0.134457 -0.234998
v 0.057750 0.134457 -0.391664
v 0.057750 0.134457 -0.548330
v 0.214416 0.134457 -0.391664
v 0.214416 0.134457 -0.548330
v -0.255581 0.134457 -0.704995
v -0.236997 0.134457 -0.938206
v -0.236981 0.212790 -0.938213
v -0.098916 0.134457 -0.704995
v -0.098916 0.134457 -0.861661
v -0.197148 0.134457 -0.951381
v -0.204421 0.212790 -0.948977
v -0.122375 0.134457 -0.976100
v -0.122375 0.212790 -0.976099
v 0.057750 0.134457 -0.704995
v 0.057750 0.134457 -0.861661
v 0.214416 0.134457 -0.704995
v 0.214416 0.134457 -0.861661
v -0.000008 0.134457 -0.999997
v -0.000002 0.212790 -0.999998
v 0.169226 0.134457 -1.011863
v 0.169225 0.212790 -1.011863
v 0.338745 0.134457 1.003752
v 0.338744 0.212790 1.003752
v 0.505701 0.134457 0.976461
v 0.505700 0.212790 0.976461
v 0.371081 0.134457 0.861661
v 0.371081 0.134457 0.704995
v 0.527747 0.134457 0.861661
v 0.527747 0.134457 0.704995
v 0.616325 0.134457 0.945188
v 0.620388 0.212790 0.944039
v 0.667227 0.134457 0.930797
v 0.667232 0.212790 0.930796
v 0.684412 0.134457 0.704995
v 0.820468 0.134457 0.867555
v 0.820469 0.212790 0.867555
v 0.841078 0.134457 0.704995
v 0.371081 0.134457 0.548330
v 0.371081 0.134457 0.391664
v 0.527747 0.134457 0.548330
v 0.527747 0.134457 0.391664
v 0.371081 0.134457 0.234998
v 0.371081 0.134457 0.078333
v 0.527747 0.134457 0.234998
v 0.527747 0.134457 0.078333
v 0.684412 0.134457 0.548330
v 0.684412 0.134457 0.391664
v 0.841078 0.134457 0.548330
v 0.841078 0.134457 0.391664
v 0.684412 0.134457 0.234998
v 0.684412 0.134457 0.078333
v 0.841078 0.134457 0.234998
v 0.841078 0.134457 0.078333
v 0.962566 0.134457 0.787535
v 0.962558 0.212790 0.787540
v 1.021159 0.134457 0.743622
v 1.022127 0.212790 0.742896
v 1.090627 0.134457 0.691560
v 1.090639 0.212790 0.691549
v 0.997744 0.134457 0.548330
v 0.997744 0.134457 0.391664
v 1.201864 0.134457 0.580364
v 1.201853 0.212790 0.580377
v 1.154409 0.134457 0.391664
v 0.997744 0.134457 0.234998
v 0.997744 0.134457 0.078333
v 1.154409 0.134457 0.234998
v 1.154409 0.134457 0.078333
v 1.260041 0.134457 0.500518
v 1.257511 0.212790 0.503990
v 1.341226 0.134457 0.389100
v 1.341225 0.212790 0.389101
v 1.381223 0.134457 0.249210
v 1.376149 0.212790 0.266958
v 1.311075 0.134457 0.078333
v 1.405628 0.134457 0.163853
v 1.405628 0.212790 0.163855
v 1.420740 0.134457 0.000000
v 1.420740 0.212790 0.000000
v 0.371081 0.134457 -0.078333
v 0.371081 0.134457 -0.234998
v 0.527747 0.134457 -0.078333
v 0.527747 0.134457 -0.234998
v 0.371081 0.134457 -0.391664
v 0.371081 0.134457 -0.548330
v 0.527747 0.134457 -0.391664
v 0.527747 0.134457 -0.548330
v 0.684412 0.134457 -0.078333
v 0.684412 0.134457 -0.234998
v 0.841078 0.134457 -0.078333
v 0.841078 0.134457 -0.234998
v 0.684412 0.134457 -0.391664
v 0.684412 0.134457 -0.548330
v 0.841078 0.134457 -0.391664
v 0.841078 0.134457 -0.548330
v 0.371081 0.134457 -0.704995
v 0.371081 0.134457 -0.861661
v 0.527747 0.134457 -0.704995
v 0.527747 0.134457 -0.861661
v 0.338744 0.134457 -1.003750
v 0.338750 0.212790 -1.003749
v 0.505703 0.134457 -0.976458
v 0.505702 0.212790 -0.976459
v 0.684412 0.134457 -0.704995
v 0.667233 0.134457 -0.930793
v 0.667245 0.212790 -0.930789
v 0.841078 0.134457 -0.704995
v 0.820457 0.134457 -0.867558
v 0.820453 0.212790 -0.867561
v 0.616322 0.134457 -0.945186
v 0.620384 0.212790 -0.944037
v 0.997744 0.134457 -0.078333
v 0.997744 0.134457 -0.234998
v 1.154409 0.134457 -0.078333
v 1.154409 0.134457 -0.234998
v 0.997744 0.134457 -0.391664
v 0.997744 0.134457 -0.548330
v 1.154409 0.134457 -0.391664
v 1.201836 0.134457 -0.580394
v 1.201857 0.212790 -0.580370
v 1.311075 0.134457 -0.078333
v 1.381223 0.134457 -0.249209
v 1.376148 0.212790 -0.266956
v 1.413414 0.134457 -0.079435
v 1.413516 0.212790 -0.078333
v 1.405628 0.134457 -0.163853
v 1.405627 0.212790 -0.163856
v 1.341225 0.134457 -0.389099
v 1.341226 0.212790 -0.389097
v 1.260040 0.134457 -0.500517
v 1.257510 0.212790 -0.503989
v 1.021157 0.134457 -0.743620
v 1.022125 0.212790 -0.742895
v 0.962568 0.134457 -0.787531
v 0.962540 0.212790 -0.787549
v 1.090634 0.134457 -0.691552
v 1.090644 0.212790 -0.691543
vn 0.000000 0.000000 -1.000000
vn 1.000000 0.000000 0.000000
vn 0.000000 0.000000 1.000000
vn 0.000000 -1.000000 0.000000
vn 0.000000 1.000000 0.000000
vn -0.644200 -0.000000 0.764900
vn -0.924800 0.000000 0.380500
vn -0.986500 0.000000 0.163700
vn -0.962100 0.000000 0.272900
vn -0.810600 -0.000000 0.585500
vn -0.313900 -0.000000 0.949500
vn -0.069900 0.000000 0.997600
vn -0.191700 0.000000 0.981500
vn -0.432100 0.000000 0.901800
vn -0.986500 0.000000 -0.163700
vn -0.962100 -0.000000 -0.272900
vn -0.924800 -0.000000 -0.380500
vn -0.810600 -0.000000 -0.585500
vn -0.644200 -0.000000 -0.764900
vn -0.313900 0.000000 -0.949500
vn -0.069900 -0.000000 -0.997600
vn -0.191700 0.000000 -0.981500
vn -0.432100 0.000000 -0.901800
vn 0.161300 0.000000 0.986900
vn 0.381500 -0.000000 0.924400
vn 0.272000 0.000000 0.962300
vn 0.599700 0.000000 0.800200
vn 0.808200 -0.000000 0.588900
vn 0.995800 0.000000 0.091800
vn 0.961500 0.000000 0.274900
vn 0.490700 -0.000000 0.871300
vn 0.707000 -0.000000 0.707200
vn 0.161300 -0.000000 -0.986900
vn 0.381500 -0.000000 -0.924400
vn 0.272000 -0.000000 -0.962300
vn 0.272100 0.000000 -0.962300
vn 0.995800 0.000000 -0.091800
vn 0.961500 0.000000 -0.274900
vn 0.808200 0.000000 -0.588900
vn 0.599700 0.000000 -0.800200
vn 0.490700 -0.000000 -0.871300
vn 0.707000 0.000000 -0.707200
vn 0.047800 0.000000 0.998900
vn 0.047800 0.000000 -0.998900
vn -0.998500 -0.000000 -0.054200
usemtl None
s off
f 4//1 3//1 11//1 12//1
f 4//1 8//1 7//1 3//1
f 8//2 6//2 5//2 7//2
f 6//3 2//3 1//3 5//3
f 1//4 3//4 7//4 5//4
f 6//5 8//5 4//5 2//5
f 11//3 9//3 13//3 15//3
f 1//3 2//3 10//3 9//3
f 3//4 1//4 9//4 11//4
f 2//5 4//5 12//5 10//5
f 16//1 15//1 19//1 20//1
f 10//3 12//3 16//3 14//3
f 12//3 11//3 15//3 16//3
f 9//3 10//3 14//3 13//3
f 18//2 17//2 19//2 20//2
f 13//3 14//3 18//3 17//3
f 15//4 13//4 17//4 19//4
f 14//5 16//5 20//5 18//5
f 23//6 24//6 26//6 25//6
f 21//6 25//6 26//6 22//6
f 27//7 28//7 30//7 29//7
f 31//8 32//8 34//8 33//8
f 31//9 35//9 36//9 32//9
f 31//4 33//4 37//4 35//4
f 38//4 40//4 42//4 41//4
f 43//4 44//4 46//4 45//4
f 27//10 38//10 39//10 28//10
f 27//4 29//4 40//4 38//4
f 35//4 37//4 44//4 43//4
f 29//9 30//9 36//9 35//9
f 40//4 43//4 45//4 42//4
f 29//4 35//4 43//4 40//4
f 47//11 49//11 50//11 48//11
f 51//4 53//4 55//4 54//4
f 56//12 58//12 59//12 57//12
f 60//4 61//4 63//4 62//4
f 49//13 56//13 57//13 50//13
f 54//4 55//4 61//4 60//4
f 47//11 48//11 52//11 51//11
f 47//4 51//4 54//4 49//4
f 56//4 60//4 62//4 58//4
f 49//4 54//4 60//4 56//4
f 64//4 65//4 67//4 66//4
f 68//4 69//4 71//4 70//4
f 72//4 73//4 75//4 74//4
f 76//4 77//4 79//4 78//4
f 66//4 67//4 73//4 72//4
f 70//4 71//4 77//4 76//4
f 65//4 68//4 70//4 67//4
f 73//4 76//4 78//4 75//4
f 67//4 70//4 76//4 73//4
f 23//14 51//14 52//14 24//14
f 23//4 25//4 53//4 51//4
f 41//4 42//4 65//4 64//4
f 45//4 46//4 69//4 68//4
f 42//4 45//4 68//4 65//4
f 21//10 22//10 39//10 38//10
f 21//4 38//4 41//4 25//4
f 53//4 64//4 66//4 55//4
f 61//4 72//4 74//4 63//4
f 55//4 66//4 72//4 61//4
f 25//4 41//4 64//4 53//4
f 80//15 81//15 83//15 82//15
f 83//16 86//16 85//16 82//16
f 80//4 82//4 85//4 84//4
f 87//17 88//17 90//17 89//17
f 91//4 92//4 94//4 93//4
f 95//4 96//4 99//4 98//4
f 84//4 85//4 92//4 91//4
f 90//18 97//18 96//18 89//18
f 87//4 89//4 96//4 95//4
f 85//16 86//16 88//16 87//16
f 92//4 95//4 98//4 94//4
f 85//4 87//4 95//4 92//4
f 102//19 103//19 105//19 104//19
f 101//19 103//19 102//19 100//19
f 106//4 107//4 109//4 108//4
f 110//4 111//4 113//4 112//4
f 114//4 115//4 117//4 116//4
f 118//4 119//4 121//4 120//4
f 108//4 109//4 115//4 114//4
f 112//4 113//4 119//4 118//4
f 107//4 110//4 112//4 109//4
f 115//4 118//4 120//4 117//4
f 109//4 112//4 118//4 115//4
f 122//4 123//4 126//4 125//4
f 128//20 130//20 129//20 127//20
f 131//4 132//4 134//4 133//4
f 136//21 138//21 137//21 135//21
f 125//4 126//4 132//4 131//4
f 130//22 136//22 135//22 129//22
f 123//20 124//20 128//20 127//20
f 123//4 127//4 129//4 126//4
f 132//4 135//4 137//4 134//4
f 126//4 129//4 135//4 132//4
f 93//4 94//4 107//4 106//4
f 98//4 99//4 111//4 110//4
f 94//4 98//4 110//4 107//4
f 105//23 124//23 123//23 104//23
f 102//4 104//4 123//4 122//4
f 96//18 97//18 101//18 100//18
f 96//4 100//4 102//4 99//4
f 111//4 122//4 125//4 113//4
f 119//4 131//4 133//4 121//4
f 113//4 125//4 131//4 119//4
f 99//4 102//4 122//4 111//4
f 139//24 141//24 142//24 140//24
f 143//4 144//4 146//4 145//4
f 149//25 152//25 153//25 150//25
f 149//4 151//4 154//4 152//4
f 141//26 147//26 148//26 142//26
f 145//4 146//4 151//4 149//4
f 139//4 143//4 145//4 141//4
f 149//26 150//26 148//26 147//26
f 141//4 145//4 149//4 147//4
f 155//4 156//4 158//4 157//4
f 159//4 160//4 162//4 161//4
f 163//4 164//4 166//4 165//4
f 167//4 168//4 170//4 169//4
f 157//4 158//4 164//4 163//4
f 161//4 162//4 168//4 167//4
f 156//4 159//4 161//4 158//4
f 164//4 167//4 169//4 166//4
f 158//4 161//4 167//4 164//4
f 173//27 174//27 172//27 171//27
f 173//27 175//27 176//27 174//27
f 177//4 178//4 181//4 179//4
f 182//4 183//4 185//4 184//4
f 188//28 189//28 187//28 186//28
f 195//29 196//29 194//29 193//29
f 190//30 193//30 194//30 191//30
f 190//4 192//4 195//4 193//4
f 179//28 186//28 187//28 180//28
f 179//4 181//4 188//4 186//4
f 184//4 185//4 192//4 190//4
f 178//4 182//4 184//4 181//4
f 190//30 191//30 189//30 188//30
f 181//4 184//4 190//4 188//4
f 152//31 171//31 172//31 153//31
f 152//4 154//4 173//4 171//4
f 165//4 166//4 178//4 177//4
f 169//4 170//4 183//4 182//4
f 166//4 169//4 182//4 178//4
f 144//4 155//4 157//4 146//4
f 151//4 163//4 165//4 154//4
f 146//4 157//4 163//4 151//4
f 179//32 180//32 176//32 175//32
f 173//4 177//4 179//4 175//4
f 154//4 165//4 177//4 173//4
f 197//4 198//4 200//4 199//4
f 201//4 202//4 204//4 203//4
f 205//4 206//4 208//4 207//4
f 209//4 210//4 212//4 211//4
f 199//4 200//4 206//4 205//4
f 203//4 204//4 210//4 209//4
f 198//4 201//4 203//4 200//4
f 206//4 209//4 211//4 208//4
f 200//4 203//4 209//4 206//4
f 213//4 214//4 216//4 215//4
f 218//33 220//33 219//33 217//33
f 223//34 226//34 225//34 222//34
f 221//4 222//4 225//4 224//4
f 215//4 216//4 222//4 221//4
f 220//35 228//35 227//35 219//35
f 214//4 217//4 219//4 216//4
f 227//36 228//36 223//36 222//36
f 216//4 219//4 227//4 222//4
f 229//4 230//4 232//4 231//4
f 233//4 234//4 236//4 235//4
f 243//37 244//37 242//37 241//37
f 240//38 244//38 243//38 239//38
f 238//4 239//4 243//4 241//4
f 247//39 248//39 246//39 245//39
f 231//4 232//4 239//4 238//4
f 237//39 248//39 247//39 236//39
f 235//4 236//4 247//4 245//4
f 230//4 233//4 235//4 232//4
f 245//38 246//38 240//38 239//38
f 232//4 235//4 245//4 239//4
f 251//40 252//40 250//40 249//40
f 250//40 254//40 253//40 249//40
f 207//4 208//4 230//4 229//4
f 211//4 212//4 234//4 233//4
f 208//4 211//4 233//4 230//4
f 226//41 252//41 251//41 225//41
f 224//4 225//4 251//4 249//4
f 202//4 213//4 215//4 204//4
f 210//4 221//4 224//4 212//4
f 204//4 215//4 221//4 210//4
f 253//42 254//42 237//42 236//42
f 234//4 249//4 253//4 236//4
f 212//4 224//4 249//4 234//4
f 58//43 139//43 140//43 59//43
f 62//4 63//4 144//4 143//4
f 58//4 62//4 143//4 139//4
f 74//4 75//4 156//4 155//4
f 78//4 79//4 160//4 159//4
f 75//4 78//4 159//4 156//4
f 63//4 74//4 155//4 144//4
f 116//4 117//4 198//4 197//4
f 120//4 121//4 202//4 201//4
f 117//4 120//4 201//4 198//4
f 133//4 134//4 214//4 213//4
f 138//44 218//44 217//44 137//44
f 134//4 137//4 217//4 214//4
f 121//4 133//4 213//4 202//4
f 33//45 34//45 81//45 80//45
f 33//4 80//4 84//4 37//4
f 44//4 91//4 93//4 46//4
f 37//4 84//4 91//4 44//4
f 69//4 106//4 108//4 71//4
f 77//4 114//4 116//4 79//4
f 71//4 108//4 114//4 77//4
f 46//4 93//4 106//4 69//4
f 160//4 197//4 199//4 162//4
f 168//4 205//4 207//4 170//4
f 162//4 199//4 205//4 168//4
f 183//4 229//4 231//4 185//4
f 241//37 242//37 196//37 195//37
f 192//4 238//4 241//4 195//4
f 185//4 231//4 238//4 192//4
f 170//4 207//4 229//4 183//4
f 79//4 116//4 197//4 160//4
f 97//5 90//5 88//5 86//5 83//5 81//5 34//5 32//5 36//5 30//5 28//5 39//5 22//5 26//5 24//5 52//5 48//5 50//5 57//5 59//5 140//5 142//5 148//5 150//5 153//5 172//5 174//5 176//5 180//5 187//5 189//5 191//5 194//5 196//5 242//5 244//5 240//5 246//5 248//5 237//5 254//5 250//5 252//5 226//5 223//5 228//5 220//5 218//5 138//5 136//5 130//5 128//5 124//5 105//5 103//5 101//5
