# Blender v2.76 (sub 0) OBJ File: 'reket.blend'
# www.blender.org
mtllib reket.mtl
o Cube
v -0.760354 0.521756 -3.039724
v -1.000000 0.521756 -5.039724
v -1.000000 1.136694 -5.039723
v -0.672630 1.136694 -3.039724
v -1.000000 1.136694 -7.215051
v -1.000000 0.521756 -7.215051
v -1.000000 1.136694 -8.864147
v -1.000000 0.521756 -8.864147
v -1.183971 0.521756 -2.619882
v -1.096247 1.136694 -2.619882
v -1.183971 0.521756 -2.619882
v -1.096247 1.136694 -2.619882
v -2.418867 0.521756 -2.055145
v -2.331143 1.136693 -2.055146
v -2.418867 0.521756 -2.055145
v -2.331143 1.136693 -2.055146
v -3.205067 0.521756 -1.854253
v -3.117343 1.136693 -1.854254
v -3.205067 0.521756 -1.854253
v -3.117343 1.136693 -1.854254
v -3.960324 0.586220 -1.419762
v -3.872600 1.201157 -1.419762
v -3.960324 0.586220 -1.419762
v -3.872600 1.201157 -1.419762
v -4.282884 0.586220 -0.810635
v -4.195160 1.201157 -0.810635
v -4.282884 0.586220 -0.810635
v -4.195160 1.201157 -0.810635
v -4.282884 0.586220 -0.810635
v -4.195160 1.201157 -0.810635
v -4.282884 0.586220 -0.810635
v -4.195160 1.201157 -0.810635
v -4.526256 0.586220 -0.194183
v -4.438532 1.201157 -0.194183
v -4.526256 0.586220 -0.194183
v -4.438532 1.201157 -0.194183
v -4.526256 0.586220 -0.194183
v -4.438532 1.201157 -0.194183
v -4.526256 0.586220 -0.194183
v -4.438532 1.201157 -0.194183
v -4.681343 0.586220 0.452537
v -4.593619 1.201157 0.452537
v -4.681343 0.586220 0.452537
v -4.593619 1.201157 0.452537
v -4.635612 0.586220 1.236618
v -4.547888 1.201157 1.236618
v -4.635612 0.586220 1.236618
v -4.547888 1.201157 1.236618
v -4.425385 0.586220 2.451026
v -4.337662 1.201157 2.451026
v -4.425385 0.586220 2.451026
v -4.337662 1.201157 2.451026
v -3.822880 0.586220 3.742102
v -3.735156 1.201157 3.742102
v -3.822880 0.586220 3.742102
v -3.735156 1.201157 3.742102
v -2.715914 0.586220 4.854704
v -2.628190 1.201157 4.854704
v -2.715914 0.586220 4.854704
v -2.628190 1.201157 4.854704
v -1.323655 0.586220 5.594652
v -1.235931 1.201157 5.594652
v -1.323655 0.586220 5.594652
v -1.235931 1.201157 5.594652
v 0.000000 1.136694 -3.039723
v 0.000000 1.136694 -5.039723
v 0.760354 0.521756 -3.039724
v 1.000000 0.521756 -5.039724
v 1.000000 1.136694 -5.039723
v 0.672630 1.136694 -3.039724
v 0.000000 0.521756 -7.215051
v 1.000000 1.136694 -7.215051
v 0.000000 0.521756 -5.039723
v 0.000000 0.521756 -3.039723
v 1.000000 0.521756 -7.215051
v 0.000000 1.136694 -7.215051
v 0.000000 0.521756 -8.864147
v 1.000000 1.136694 -8.864147
v 1.000000 0.521756 -8.864147
v 0.000000 1.136694 -8.864146
v 0.000000 1.136694 -2.619882
v 1.183971 0.521756 -2.619882
v 1.096247 1.136694 -2.619882
v 0.000000 0.521756 -2.619882
v 1.183971 0.521756 -2.619882
v 1.096247 1.136694 -2.619882
v 0.000000 1.136693 -2.055145
v 2.418867 0.521756 -2.055145
v 2.331143 1.136693 -2.055146
v 0.000000 0.521756 -2.055145
v 2.418867 0.521756 -2.055145
v 2.331143 1.136693 -2.055146
v 0.000000 1.136693 -1.854253
v 3.205067 0.521756 -1.854253
v 3.117343 1.136693 -1.854254
v 0.000000 0.521756 -1.854253
v 3.205067 0.521756 -1.854253
v 3.117343 1.136693 -1.854254
v 0.000000 1.201157 -1.419762
v 3.960324 0.586220 -1.419762
v 3.872600 1.201157 -1.419762
v 0.000000 0.586220 -1.419762
v 3.960324 0.586220 -1.419762
v 3.872600 1.201157 -1.419762
v 0.000000 1.201157 -0.810635
v 4.282884 0.586220 -0.810635
v 4.195160 1.201157 -0.810635
v 0.000000 0.586220 -0.810635
v 4.282884 0.586220 -0.810635
v 4.195160 1.201157 -0.810635
v 0.000000 1.201157 -0.810635
v 4.282884 0.586220 -0.810635
v 4.195160 1.201157 -0.810635
v 0.000000 0.586220 -0.810635
v 4.282884 0.586220 -0.810635
v 4.195160 1.201157 -0.810635
v 0.000000 1.201157 -0.194183
v 4.526256 0.586220 -0.194183
v 4.438532 1.201157 -0.194183
v 0.000000 0.586220 -0.194183
v 4.526256 0.586220 -0.194183
v 4.438532 1.201157 -0.194183
v 0.000000 1.201157 -0.194183
v 4.526256 0.586220 -0.194183
v 4.438532 1.201157 -0.194183
v 0.000000 0.586220 -0.194183
v 4.526256 0.586220 -0.194183
v 4.438532 1.201157 -0.194183
v 0.000000 1.201157 0.452537
v 4.681343 0.586220 0.452537
v 4.593619 1.201157 0.452537
v 0.000000 0.586220 0.452537
v 4.681343 0.586220 0.452537
v 4.593619 1.201157 0.452537
v 0.000000 1.201157 1.236618
v 4.635612 0.586220 1.236618
v 4.547888 1.201157 1.236618
v 0.000000 0.586220 1.236618
v 4.635612 0.586220 1.236618
v 4.547888 1.201157 1.236618
v 0.000000 1.201157 2.451026
v 4.425385 0.586220 2.451026
v 4.337662 1.201157 2.451026
v 0.000000 0.586220 2.451026
v 4.425385 0.586220 2.451026
v 4.337662 1.201157 2.451026
v 0.000000 1.201157 3.742102
v 3.822880 0.586220 3.742102
v 3.735156 1.201157 3.742102
v 0.000000 0.586220 3.742102
v 3.822880 0.586220 3.742102
v 3.735156 1.201157 3.742102
v 0.000000 1.201157 4.854704
v 2.715914 0.586220 4.854704
v 2.628190 1.201157 4.854704
v 0.000000 0.586220 4.854704
v 2.715914 0.586220 4.854704
v 2.628190 1.201157 4.854704
v 0.000000 1.201157 5.594652
v 1.323655 0.586220 5.594652
v 1.235931 1.201157 5.594652
v 0.000000 0.586220 5.594652
v 1.323655 0.586220 5.594652
v 1.235931 1.201157 5.594652
v 0.000000 1.201157 5.787243
v 0.000000 0.586220 5.787243
v 0.000000 1.201157 5.787243
v 0.000000 0.586220 5.787243
v 0.000000 0.586220 5.787243
v 0.000000 1.201157 5.787243
vn 0.000000 -1.000000 0.000000
vn -1.000000 0.000000 0.000000
vn 0.000000 1.000000 0.000000
vn -0.987600 0.070400 0.140000
vn 0.000000 0.000000 -1.000000
vn 0.415200 -0.059200 0.907800
vn -0.700400 0.099900 -0.706700
vn 0.000000 0.000000 1.000000
vn 0.000000 0.989200 -0.146800
vn 0.492900 -0.070300 0.867200
vn 0.247400 -0.035300 0.968300
vn 0.876800 -0.125100 0.464300
vn 0.000000 -0.989200 0.146800
vn 0.922100 -0.131500 0.364000
vn 0.963200 -0.137400 0.231000
vn 0.988300 -0.141000 -0.057600
vn 0.975800 -0.139200 -0.168900
vn 0.898700 -0.128200 -0.419400
vn 0.705300 -0.100600 -0.701700
vn 0.468300 -0.066800 -0.881100
vn 0.148800 -0.010600 -0.988800
vn 1.000000 0.000000 0.000000
vn 0.987600 0.070400 0.140000
vn -0.415200 -0.059200 0.907800
vn 0.700400 0.099900 -0.706700
vn -0.492900 -0.070300 0.867200
vn -0.247400 -0.035300 0.968300
vn -0.876800 -0.125100 0.464300
vn -0.922100 -0.131500 0.364000
vn -0.963200 -0.137400 0.231000
vn -0.988300 -0.141000 -0.057600
vn -0.975800 -0.139200 -0.168900
vn -0.898700 -0.128200 -0.419400
vn -0.705300 -0.100600 -0.701700
vn -0.468300 -0.066800 -0.881100
vn -0.148800 -0.010600 -0.988800
usemtl Material
s off
f 73//1 74//1 1//1 2//1
f 73//1 2//1 6//1 71//1
f 2//2 3//2 5//2 6//2
f 71//1 6//1 8//1 77//1
f 3//3 66//3 76//3 5//3
f 1//1 74//1 84//1 9//1
f 1//4 4//4 3//4 2//4
f 4//3 65//3 66//3 3//3
f 80//5 77//5 8//5 7//5
f 5//3 76//3 80//3 7//3
f 6//2 5//2 7//2 8//2
f 11//6 12//6 16//6 15//6
f 4//7 1//7 9//7 10//7
f 65//3 4//3 10//3 81//3
f 12//8 10//8 14//8 16//8
f 13//1 90//1 96//1 17//1
f 13//8 15//8 19//8 17//8
f 9//1 84//1 90//1 13//1
f 9//8 11//8 15//8 13//8
f 81//3 10//3 14//3 87//3
f 93//9 18//9 22//9 99//9
f 19//10 20//10 24//10 23//10
f 16//8 14//8 18//8 20//8
f 15//11 16//11 20//11 19//11
f 87//3 14//3 18//3 93//3
f 99//3 22//3 26//3 105//3
f 23//12 24//12 28//12 27//12
f 17//8 19//8 23//8 21//8
f 17//13 96//13 102//13 21//13
f 20//8 18//8 22//8 24//8
f 105//8 26//8 30//8 111//8
f 27//8 28//8 32//8 31//8
f 21//8 23//8 27//8 25//8
f 21//1 102//1 108//1 25//1
f 24//8 22//8 26//8 28//8
f 29//1 114//1 120//1 33//1
f 29//8 31//8 35//8 33//8
f 25//8 27//8 31//8 29//8
f 25//8 108//8 114//8 29//8
f 28//8 26//8 30//8 32//8
f 33//8 120//8 126//8 37//8
f 33//8 35//8 39//8 37//8
f 32//8 30//8 34//8 36//8
f 31//14 32//14 36//14 35//14
f 111//3 30//3 34//3 117//3
f 37//1 126//1 132//1 41//1
f 37//8 39//8 43//8 41//8
f 36//8 34//8 38//8 40//8
f 35//8 36//8 40//8 39//8
f 117//8 34//8 38//8 123//8
f 41//1 132//1 138//1 45//1
f 41//8 43//8 47//8 45//8
f 40//8 38//8 42//8 44//8
f 39//15 40//15 44//15 43//15
f 123//3 38//3 42//3 129//3
f 45//1 138//1 144//1 49//1
f 45//8 47//8 51//8 49//8
f 44//8 42//8 46//8 48//8
f 43//16 44//16 48//16 47//16
f 129//3 42//3 46//3 135//3
f 49//1 144//1 150//1 53//1
f 49//8 51//8 55//8 53//8
f 48//8 46//8 50//8 52//8
f 47//17 48//17 52//17 51//17
f 135//3 46//3 50//3 141//3
f 53//1 150//1 156//1 57//1
f 53//8 55//8 59//8 57//8
f 52//8 50//8 54//8 56//8
f 51//18 52//18 56//18 55//18
f 141//3 50//3 54//3 147//3
f 57//1 156//1 162//1 61//1
f 57//8 59//8 63//8 61//8
f 56//8 54//8 58//8 60//8
f 55//19 56//19 60//19 59//19
f 147//3 54//3 58//3 153//3
f 61//1 162//1 168//1 166//1
f 61//8 63//8 169//8 166//8
f 60//8 58//8 62//8 64//8
f 59//20 60//20 64//20 63//20
f 153//3 58//3 62//3 159//3
f 64//8 62//8 167//8 170//8
f 63//21 64//21 170//21 169//21
f 159//3 62//3 167//3 165//3
f 73//1 68//1 67//1 74//1
f 73//1 71//1 75//1 68//1
f 68//22 75//22 72//22 69//22
f 71//1 77//1 79//1 75//1
f 69//3 72//3 76//3 66//3
f 67//1 82//1 84//1 74//1
f 67//23 68//23 69//23 70//23
f 70//3 69//3 66//3 65//3
f 80//5 78//5 79//5 77//5
f 72//3 78//3 80//3 76//3
f 75//22 79//22 78//22 72//22
f 85//24 91//24 92//24 86//24
f 70//25 83//25 82//25 67//25
f 65//3 81//3 83//3 70//3
f 86//8 92//8 89//8 83//8
f 88//1 94//1 96//1 90//1
f 88//8 94//8 97//8 91//8
f 82//1 88//1 90//1 84//1
f 82//8 88//8 91//8 85//8
f 81//3 87//3 89//3 83//3
f 93//9 99//9 101//9 95//9
f 97//26 103//26 104//26 98//26
f 92//8 98//8 95//8 89//8
f 91//27 97//27 98//27 92//27
f 87//3 93//3 95//3 89//3
f 99//3 105//3 107//3 101//3
f 103//28 109//28 110//28 104//28
f 94//8 100//8 103//8 97//8
f 94//13 100//13 102//13 96//13
f 98//8 104//8 101//8 95//8
f 105//8 111//8 113//8 107//8
f 109//8 115//8 116//8 110//8
f 100//8 106//8 109//8 103//8
f 100//1 106//1 108//1 102//1
f 104//8 110//8 107//8 101//8
f 112//1 118//1 120//1 114//1
f 112//8 118//8 121//8 115//8
f 106//8 112//8 115//8 109//8
f 106//8 112//8 114//8 108//8
f 110//8 116//8 113//8 107//8
f 118//8 124//8 126//8 120//8
f 118//8 124//8 127//8 121//8
f 116//8 122//8 119//8 113//8
f 115//29 121//29 122//29 116//29
f 111//3 117//3 119//3 113//3
f 124//1 130//1 132//1 126//1
f 124//8 130//8 133//8 127//8
f 122//8 128//8 125//8 119//8
f 121//8 127//8 128//8 122//8
f 117//8 123//8 125//8 119//8
f 130//1 136//1 138//1 132//1
f 130//8 136//8 139//8 133//8
f 128//8 134//8 131//8 125//8
f 127//30 133//30 134//30 128//30
f 123//3 129//3 131//3 125//3
f 136//1 142//1 144//1 138//1
f 136//8 142//8 145//8 139//8
f 134//8 140//8 137//8 131//8
f 133//31 139//31 140//31 134//31
f 129//3 135//3 137//3 131//3
f 142//1 148//1 150//1 144//1
f 142//8 148//8 151//8 145//8
f 140//8 146//8 143//8 137//8
f 139//32 145//32 146//32 140//32
f 135//3 141//3 143//3 137//3
f 148//1 154//1 156//1 150//1
f 148//8 154//8 157//8 151//8
f 146//8 152//8 149//8 143//8
f 145//33 151//33 152//33 146//33
f 141//3 147//3 149//3 143//3
f 154//1 160//1 162//1 156//1
f 154//8 160//8 163//8 157//8
f 152//8 158//8 155//8 149//8
f 151//34 157//34 158//34 152//34
f 147//3 153//3 155//3 149//3
f 160//1 166//1 168//1 162//1
f 160//8 166//8 169//8 163//8
f 158//8 164//8 161//8 155//8
f 157//35 163//35 164//35 158//35
f 153//3 159//3 161//3 155//3
f 168//8 166//8 167//8 165//8
f 167//8 170//8 169//8 166//8
f 164//8 170//8 167//8 161//8
f 163//36 169//36 170//36 164//36
f 159//3 165//3 167//3 161//3
